# xmcd
#
# Track frame offsets:
#	150
#	20435
#	43310
#	63590
#	77682
#
# Disc length: 1337 seconds
#
# Revision: 1
# Processed by: cddbd v1.5.1PL0 Copyright (c) Steve Scherf et al.
# Submitted via: CDex 1.50Beta5
#
DISCID=3c053705
DTITLE=小金沢昇治 - 惚れちまったよ
DYEAR=2003
DGENRE=World
TTITLE0=惚れちまったよ
TTITLE1=森にいきる詩
TTITLE2=惚れちまったよオリジナルカラオケ(Cm)
TTITLE3=惚れちまったよ一般用カラオケ(Bm)
TTITLE4=森にいきる詩オリジナルカラオケ(E)
EXTD=
EXTT0=
EXTT1=
EXTT2=
EXTT3=
EXTT4=
PLAYORDER=
